<?xml version="1.0" standalone="no"?><!DOCTYPE svg PUBLIC "-//W3C//DTD SVG 1.1//EN" "http://www.w3.org/Graphics/SVG/1.1/DTD/svg11.dtd"><svg t="1598960993043" class="icon" viewBox="0 0 1024 1024" version="1.1" xmlns="http://www.w3.org/2000/svg" p-id="4971" xmlns:xlink="http://www.w3.org/1999/xlink" width="200" height="200"><defs><style type="text/css"></style></defs><path d="M705.042963 1024H318.893827A230.968889 230.968889 0 0 1 88.177778 793.283951v-562.567902A230.968889 230.968889 0 0 1 318.893827 0h386.212346a230.968889 230.968889 0 0 1 230.716049 230.716049v562.567902A230.968889 230.968889 0 0 1 705.042963 1024zM318.893827 75.851852A154.990617 154.990617 0 0 0 164.02963 230.716049v562.567902A154.990617 154.990617 0 0 0 318.893827 948.148148h386.212346a154.990617 154.990617 0 0 0 154.864197-154.864197v-562.567902A154.990617 154.990617 0 0 0 705.042963 75.851852z" fill="#333333" p-id="4972"></path><path d="M552.580741 275.215802H359.980247a37.925926 37.925926 0 0 1 0-75.851851h192.600494a37.925926 37.925926 0 1 1 0 75.851851zM430.838519 450.117531H334.696296a37.925926 37.925926 0 0 1 0-75.851852h96.142223a37.925926 37.925926 0 0 1 0 75.851852zM676.02963 450.117531H604.981728a37.925926 37.925926 0 0 1 0-75.851852H676.02963a37.925926 37.925926 0 0 1 0 75.851852zM442.153086 624.956049H334.696296a37.925926 37.925926 0 0 1 0-75.851851h107.45679a37.925926 37.925926 0 0 1 0 75.851851zM575.715556 799.857778H359.980247a37.925926 37.925926 0 0 1 0-75.851852h215.735309a37.925926 37.925926 0 1 1 0 75.851852z" fill="#333333" p-id="4973"></path></svg>