<?xml version="1.0" standalone="no"?><!DOCTYPE svg PUBLIC "-//W3C//DTD SVG 1.1//EN" "http://www.w3.org/Graphics/SVG/1.1/DTD/svg11.dtd"><svg t="1598959748769" class="icon" viewBox="0 0 1024 1024" version="1.1" xmlns="http://www.w3.org/2000/svg" p-id="4205" xmlns:xlink="http://www.w3.org/1999/xlink" width="200" height="200"><defs><style type="text/css"></style></defs><path d="M71.933876 1024l251.025253-251.142281 247.455896 247.631438a118.724997 118.724997 0 0 0 21.474655-14.394455 126.741421 126.741421 0 0 0 0-179.345548l-53.715893-53.891435 358.632581-358.808124 68.051834 68.168863a117.847287 117.847287 0 0 0 21.533169-14.335941 126.741421 126.741421 0 0 0 0-179.345548L735.483146 37.102118a126.916964 126.916964 0 0 0-179.345548 0A124.459374 124.459374 0 0 0 541.801657 58.518258l68.110349 68.168862L251.279424 485.670786l-53.832921-53.774407a126.916964 126.916964 0 0 0-179.287034 0 127.619132 127.619132 0 0 0-14.335941 21.41614l247.455896 247.631439L0.254171 952.086239V1024z" p-id="4206"></path></svg>